<svg id="svg" version="1.1" xmlns="http://www.w3.org/2000/svg" xmlns:xlink="http://www.w3.org/1999/xlink" width="400" height="400" viewBox="0, 0, 400,400"><g id="svgg"><path id="path0" d="M285.600 132.758 C 285.600 132.955,284.925 133.218,284.100 133.343 C 280.520 133.884,279.600 134.109,279.600 134.444 C 279.600 134.640,278.981 134.800,278.224 134.800 C 277.467 134.800,276.736 134.980,276.600 135.200 C 276.464 135.420,275.744 135.600,275.000 135.600 C 274.256 135.600,273.536 135.780,273.400 136.000 C 273.264 136.220,272.544 136.400,271.800 136.400 C 271.056 136.400,270.336 136.580,270.200 136.800 C 270.064 137.020,269.233 137.200,268.353 137.200 C 267.388 137.200,266.851 137.359,267.000 137.600 C 267.147 137.838,266.679 138.000,265.847 138.000 C 265.077 138.000,264.336 138.180,264.200 138.400 C 264.064 138.620,263.344 138.800,262.600 138.800 C 261.856 138.800,261.136 138.980,261.000 139.200 C 260.864 139.420,260.349 139.600,259.856 139.600 C 259.363 139.600,258.476 139.825,257.886 140.100 L 256.812 140.600 256.809 187.290 C 256.808 212.969,256.784 234.119,256.756 234.290 C 256.728 234.460,256.727 234.870,256.755 235.200 C 256.828 236.091,258.768 233.584,258.786 232.575 C 258.794 232.122,259.160 231.364,259.600 230.892 C 260.040 230.420,260.400 229.666,260.400 229.217 C 260.400 228.768,260.580 228.400,260.800 228.400 C 261.020 228.400,261.200 228.051,261.200 227.624 C 261.200 227.197,261.380 226.736,261.600 226.600 C 261.820 226.464,262.000 225.993,262.000 225.553 C 262.000 225.113,262.180 224.864,262.400 225.000 C 262.620 225.136,262.800 224.877,262.800 224.424 C 262.800 223.971,262.980 223.600,263.200 223.600 C 263.420 223.600,263.600 223.240,263.600 222.800 C 263.600 222.360,263.810 222.000,264.067 222.000 C 264.323 222.000,264.420 221.887,264.282 221.749 C 264.144 221.611,264.474 220.705,265.016 219.735 C 265.557 218.765,266.000 217.708,266.000 217.386 C 266.000 217.064,266.180 216.800,266.400 216.800 C 266.620 216.800,266.800 216.440,266.800 216.000 C 266.800 215.560,267.010 215.200,267.267 215.200 C 267.523 215.200,267.624 215.090,267.490 214.956 C 267.356 214.823,267.866 213.525,268.623 212.072 C 269.380 210.620,270.000 209.189,270.000 208.892 C 270.000 208.586,270.200 208.476,270.462 208.638 C 270.737 208.808,270.815 208.749,270.656 208.490 C 270.508 208.252,271.174 206.469,272.134 204.528 C 273.095 202.588,274.222 200.146,274.640 199.101 C 275.058 198.057,275.535 197.202,275.700 197.201 C 275.865 197.201,276.000 196.928,276.000 196.595 C 276.000 196.262,276.162 195.677,276.360 195.295 C 276.558 194.913,277.680 192.620,278.855 190.200 C 280.029 187.780,281.127 185.740,281.295 185.667 C 281.463 185.593,281.600 185.023,281.600 184.400 C 281.600 183.777,281.735 183.207,281.900 183.133 C 282.332 182.941,284.000 179.628,284.000 178.962 C 284.000 178.653,284.180 178.400,284.400 178.400 C 284.620 178.400,284.800 178.166,284.800 177.880 C 284.800 177.144,285.741 175.207,286.100 175.203 C 286.265 175.201,286.400 174.851,286.400 174.424 C 286.400 173.997,286.580 173.536,286.800 173.400 C 287.020 173.264,287.200 172.803,287.200 172.376 C 287.200 171.949,287.336 171.600,287.502 171.600 C 287.669 171.600,288.057 171.015,288.365 170.300 C 288.673 169.585,289.527 167.682,290.262 166.071 C 290.998 164.460,291.600 162.885,291.600 162.571 C 291.600 162.257,291.780 162.000,292.000 162.000 C 292.220 162.000,292.400 161.640,292.400 161.200 C 292.400 160.760,292.580 160.400,292.800 160.400 C 293.020 160.400,293.200 160.128,293.200 159.795 C 293.200 159.462,293.380 158.832,293.600 158.395 C 293.820 157.958,294.180 157.240,294.400 156.800 C 294.620 156.360,294.962 155.685,295.159 155.300 C 298.705 148.386,300.179 141.700,298.400 140.600 C 298.180 140.464,298.000 140.003,298.000 139.576 C 298.000 139.149,297.820 138.800,297.600 138.800 C 297.380 138.800,297.200 138.548,297.200 138.240 C 297.200 137.512,294.488 134.800,293.760 134.800 C 293.452 134.800,293.200 134.641,293.200 134.447 C 293.200 134.252,292.885 133.989,292.500 133.861 C 292.115 133.733,291.080 133.355,290.200 133.020 C 288.445 132.353,285.600 132.191,285.600 132.758 M256.000 237.400 C 255.483 237.950,255.251 238.400,255.484 238.400 C 255.717 238.400,256.203 237.950,256.563 237.400 C 256.924 236.850,257.156 236.400,257.079 236.400 C 257.002 236.400,256.517 236.850,256.000 237.400 " stroke="none" fill="#8412bb" fill-rule="evenodd"></path><path id="path1" d="M183.000 50.000 C 180.800 50.135,179.406 50.280,179.902 50.323 L 180.804 50.400 180.798 134.676 C 180.794 190.850,180.927 219.087,181.196 219.356 C 181.468 219.628,181.600 219.614,181.600 219.313 C 181.600 219.068,181.375 218.776,181.100 218.665 C 180.784 218.538,180.842 218.452,181.257 218.432 C 181.619 218.414,182.026 218.690,182.162 219.045 C 182.324 219.468,182.580 219.568,182.905 219.336 C 183.177 219.141,184.058 218.986,184.862 218.991 C 185.666 218.996,186.261 218.900,186.186 218.777 C 186.110 218.655,187.162 218.326,188.524 218.047 C 189.886 217.768,191.413 217.374,191.919 217.170 C 192.424 216.967,193.459 216.800,194.219 216.800 C 194.978 216.800,195.600 216.620,195.600 216.400 C 195.600 216.180,196.309 216.000,197.176 216.000 C 198.043 216.000,198.852 215.839,198.974 215.642 C 199.095 215.445,199.871 215.182,200.697 215.058 C 204.278 214.517,205.200 214.291,205.200 213.956 C 205.200 213.760,205.909 213.600,206.776 213.600 C 207.643 213.600,208.464 213.420,208.600 213.200 C 208.736 212.980,209.198 212.800,209.627 212.800 C 210.449 212.800,210.367 217.208,209.539 217.533 C 209.353 217.607,209.200 218.361,209.200 219.210 C 209.200 220.058,209.020 220.864,208.800 221.000 C 208.580 221.136,208.400 221.856,208.400 222.600 C 208.400 223.344,208.220 224.064,208.000 224.200 C 207.780 224.336,207.600 225.067,207.600 225.824 C 207.600 226.581,207.420 227.200,207.200 227.200 C 206.980 227.200,206.800 227.920,206.800 228.800 C 206.800 229.680,206.620 230.400,206.400 230.400 C 206.180 230.400,206.000 231.030,206.000 231.800 C 206.000 232.570,205.820 233.200,205.600 233.200 C 205.380 233.200,205.200 233.920,205.200 234.800 C 205.200 235.680,205.020 236.400,204.800 236.400 C 204.580 236.400,204.400 237.120,204.400 238.000 C 204.400 238.880,204.258 239.600,204.085 239.600 C 203.912 239.600,203.726 240.185,203.673 240.900 C 203.580 242.137,203.115 243.902,202.349 245.919 C 202.157 246.424,202.000 247.369,202.000 248.019 C 202.000 248.668,201.857 249.200,201.682 249.200 C 201.507 249.200,201.318 249.875,201.263 250.699 C 201.207 251.524,200.990 252.370,200.781 252.579 C 200.571 252.789,200.400 253.565,200.400 254.304 C 200.400 255.043,200.255 255.557,200.077 255.447 C 199.899 255.338,199.710 255.986,199.657 256.887 C 199.604 257.789,199.389 258.847,199.180 259.237 C 198.971 259.628,198.800 260.409,198.800 260.974 C 198.800 261.538,198.620 262.000,198.400 262.000 C 198.180 262.000,198.000 262.731,198.000 263.624 C 198.000 264.517,197.855 265.157,197.677 265.047 C 197.499 264.938,197.310 265.602,197.257 266.524 C 197.203 267.446,196.989 268.260,196.780 268.333 C 196.571 268.407,196.400 269.142,196.400 269.967 C 196.400 270.792,196.265 271.602,196.100 271.767 C 195.935 271.932,195.785 272.367,195.767 272.733 C 195.749 273.100,195.616 273.850,195.472 274.400 C 195.148 275.629,194.786 277.409,194.535 279.000 C 194.431 279.660,194.198 280.560,194.017 281.000 C 193.416 282.463,192.800 285.079,192.800 286.170 C 192.800 286.762,192.657 287.159,192.483 287.051 C 192.309 286.944,192.123 287.416,192.071 288.101 C 192.019 288.786,191.756 289.618,191.488 289.950 C 191.102 290.428,191.104 290.491,191.500 290.253 C 191.775 290.088,192.000 290.133,192.000 290.353 C 192.000 290.573,191.820 290.864,191.600 291.000 C 191.380 291.136,191.200 291.766,191.200 292.400 C 191.200 293.034,191.020 293.664,190.800 293.800 C 190.580 293.936,190.400 294.656,190.400 295.400 C 190.400 296.144,190.240 296.852,190.044 296.973 C 189.849 297.094,189.592 297.779,189.473 298.496 C 189.355 299.213,189.050 300.610,188.796 301.600 C 188.543 302.590,188.241 304.075,188.125 304.900 C 188.010 305.725,187.755 306.400,187.558 306.400 C 187.361 306.400,187.200 307.019,187.200 307.776 C 187.200 308.533,187.050 309.246,186.866 309.359 C 186.683 309.473,186.502 310.338,186.465 311.283 C 186.428 312.227,186.219 313.060,185.999 313.133 C 185.780 313.207,185.600 313.702,185.600 314.233 C 185.600 314.765,185.451 315.200,185.268 315.200 C 185.086 315.200,184.938 315.515,184.940 315.900 C 184.952 318.839,184.760 320.157,184.400 319.600 C 184.109 319.149,183.998 319.374,183.956 320.500 C 183.886 322.376,183.866 322.476,183.432 323.162 C 183.166 323.581,183.219 323.638,183.638 323.385 C 184.100 323.107,184.097 323.173,183.621 323.760 C 183.302 324.152,183.084 325.101,183.135 325.869 C 183.194 326.738,183.075 327.170,182.821 327.013 C 182.558 326.851,182.499 327.195,182.655 327.974 C 182.836 328.879,182.732 329.251,182.249 329.437 C 181.892 329.574,181.600 330.116,181.600 330.643 C 181.600 331.169,181.396 331.600,181.147 331.600 C 180.850 331.600,180.768 332.149,180.909 333.200 C 181.071 334.409,180.987 334.800,180.562 334.800 C 179.923 334.800,179.795 335.464,180.395 335.667 C 180.628 335.745,180.541 336.280,180.183 336.968 C 179.503 338.278,180.001 339.359,180.880 338.480 C 181.253 338.107,181.187 337.999,180.580 337.994 C 179.938 337.989,179.905 337.921,180.394 337.612 C 180.814 337.346,181.097 337.430,181.358 337.897 C 181.604 338.337,181.573 338.609,181.264 338.712 C 180.565 338.945,180.601 382.653,181.300 382.935 C 181.575 383.046,181.316 383.151,180.724 383.168 C 179.189 383.213,178.872 384.000,180.389 384.000 C 181.109 384.000,181.720 383.754,181.851 383.410 C 182.049 382.896,182.157 382.900,182.697 383.440 C 183.156 383.899,183.392 383.936,183.610 383.584 C 183.835 383.220,183.940 383.221,184.064 383.592 C 184.173 383.920,184.866 383.710,186.226 382.937 C 189.343 381.166,189.363 381.146,190.602 378.500 C 191.246 377.125,191.914 376.000,192.086 376.000 C 192.259 376.000,192.400 375.460,192.400 374.800 C 192.400 374.140,192.535 373.599,192.700 373.597 C 193.059 373.593,194.000 371.656,194.000 370.920 C 194.000 370.634,194.180 370.400,194.400 370.400 C 194.620 370.400,194.800 370.130,194.800 369.800 C 194.800 369.470,194.947 369.200,195.128 369.200 C 195.308 369.200,195.700 368.302,195.999 367.204 C 196.298 366.107,196.627 365.294,196.732 365.398 C 197.014 365.681,198.000 363.625,198.000 362.754 C 198.000 362.339,198.180 362.000,198.400 362.000 C 198.620 362.000,198.800 361.640,198.800 361.200 C 198.800 360.760,198.980 360.400,199.200 360.400 C 199.420 360.400,199.600 360.040,199.600 359.600 C 199.600 359.160,199.780 358.800,200.000 358.800 C 200.220 358.800,200.400 358.440,200.400 358.000 C 200.400 357.560,200.580 357.200,200.800 357.200 C 201.020 357.200,201.200 356.930,201.200 356.600 C 201.200 356.270,201.374 356.000,201.587 356.000 C 201.801 356.000,201.880 355.753,201.764 355.452 C 201.649 355.150,201.847 354.610,202.206 354.252 C 202.564 353.893,202.734 353.600,202.583 353.600 C 202.432 353.600,202.599 353.156,202.954 352.614 C 203.309 352.072,203.600 351.352,203.600 351.014 C 203.600 350.676,203.780 350.400,204.000 350.400 C 204.220 350.400,204.400 350.040,204.400 349.600 C 204.400 349.160,204.610 348.800,204.867 348.800 C 205.123 348.800,205.228 348.695,205.100 348.567 C 204.819 348.286,206.743 344.323,207.363 343.906 C 207.603 343.744,207.667 343.609,207.505 343.606 C 207.343 343.603,207.642 342.624,208.169 341.431 C 208.697 340.238,209.025 339.158,208.898 339.031 C 208.771 338.904,208.877 338.800,209.133 338.800 C 209.390 338.800,209.600 338.440,209.600 338.000 C 209.600 337.560,209.780 337.200,210.000 337.200 C 210.220 337.200,210.400 336.966,210.400 336.680 C 210.400 335.944,211.341 334.007,211.700 334.003 C 211.865 334.001,212.000 333.735,212.000 333.412 C 212.000 333.089,212.360 332.183,212.800 331.400 C 213.240 330.617,213.600 329.701,213.600 329.364 C 213.600 329.028,213.780 328.864,214.000 329.000 C 214.220 329.136,214.400 328.877,214.400 328.424 C 214.400 327.971,214.542 327.600,214.715 327.600 C 214.888 327.600,215.060 327.198,215.097 326.706 C 215.134 326.214,215.352 325.749,215.582 325.673 C 215.812 325.596,216.000 325.098,216.000 324.567 C 216.000 324.035,216.180 323.600,216.400 323.600 C 216.620 323.600,216.800 323.240,216.800 322.800 C 216.800 322.360,216.936 322.000,217.102 322.000 C 217.269 322.000,217.647 321.415,217.943 320.700 C 218.239 319.985,219.097 318.174,219.849 316.674 C 220.601 315.175,221.112 313.780,220.984 313.574 C 220.857 313.369,220.938 313.200,221.164 313.200 C 221.390 313.200,221.480 312.953,221.364 312.652 C 221.249 312.350,221.453 311.988,221.819 311.848 C 222.203 311.701,222.387 311.342,222.254 310.997 C 222.128 310.668,222.205 310.400,222.425 310.400 C 222.645 310.400,222.939 310.085,223.078 309.700 C 223.217 309.315,223.673 308.505,224.092 307.900 C 224.512 307.295,224.658 306.800,224.417 306.800 C 224.177 306.800,223.800 307.275,223.579 307.855 C 223.135 309.024,222.719 308.878,222.566 307.500 C 222.512 307.005,222.452 271.285,222.433 228.123 L 222.400 149.646 221.589 149.802 C 221.143 149.888,220.872 149.807,220.986 149.622 C 221.101 149.437,220.575 149.425,219.817 149.596 C 219.060 149.767,218.312 149.793,218.156 149.653 C 218.000 149.514,218.001 149.625,218.159 149.900 C 218.369 150.265,218.014 150.400,216.847 150.400 C 215.967 150.400,215.136 150.580,215.000 150.800 C 214.864 151.020,214.324 151.200,213.800 151.200 C 213.276 151.200,212.759 151.342,212.652 151.516 C 212.258 152.154,209.600 152.064,209.600 151.413 C 209.600 151.076,209.780 150.800,210.000 150.800 C 210.220 150.800,210.400 150.361,210.400 149.824 C 210.400 149.287,210.580 148.736,210.800 148.600 C 211.020 148.464,211.200 147.913,211.200 147.376 C 211.200 146.839,211.380 146.400,211.600 146.400 C 211.820 146.400,212.000 145.860,212.000 145.200 C 212.000 144.540,212.180 144.000,212.400 144.000 C 212.620 144.000,212.800 143.640,212.800 143.200 C 212.800 142.760,212.980 142.400,213.200 142.400 C 213.420 142.400,213.600 141.860,213.600 141.200 C 213.600 140.540,213.780 140.000,214.000 140.000 C 214.220 140.000,214.400 139.460,214.400 138.800 C 214.400 138.140,214.580 137.600,214.800 137.600 C 215.020 137.600,215.200 137.240,215.200 136.800 C 215.200 136.360,215.360 136.000,215.555 136.000 C 215.750 136.000,216.020 135.460,216.155 134.800 C 216.290 134.140,216.510 133.060,216.645 132.400 C 216.780 131.740,217.050 131.200,217.245 131.200 C 217.440 131.200,217.600 130.750,217.600 130.200 C 217.600 129.650,217.780 129.200,218.000 129.200 C 218.220 129.200,218.400 128.649,218.400 127.976 C 218.400 127.263,218.567 126.856,218.800 127.000 C 219.137 127.208,219.417 125.772,219.247 124.700 C 219.221 124.535,219.401 124.400,219.647 124.400 C 219.907 124.400,220.014 123.984,219.902 123.400 C 219.774 122.729,219.890 122.400,220.255 122.400 C 220.756 122.400,221.002 121.382,220.821 120.060 C 220.780 119.763,220.939 119.638,221.173 119.783 C 221.423 119.938,221.600 119.705,221.600 119.224 C 221.600 118.771,221.801 118.400,222.047 118.400 C 222.306 118.400,222.414 117.986,222.304 117.412 C 222.201 116.869,222.270 116.519,222.458 116.636 C 222.646 116.752,222.814 116.702,222.831 116.524 C 222.878 116.020,223.099 115.076,223.374 114.200 C 223.567 113.583,223.516 113.606,223.151 114.300 C 222.512 115.515,221.924 115.442,222.239 114.187 C 222.562 112.900,222.535 116.843,222.463 80.900 L 222.400 49.600 204.700 49.677 C 194.965 49.720,185.200 49.865,183.000 50.000 M224.151 109.520 C 224.295 109.754,224.221 110.063,223.987 110.208 C 223.691 110.391,223.704 110.643,224.030 111.036 C 224.366 111.441,224.372 111.600,224.049 111.600 C 223.802 111.600,223.601 112.005,223.602 112.500 C 223.605 113.343,223.641 113.330,224.177 112.304 C 224.984 110.757,225.095 109.507,224.444 109.285 C 224.124 109.176,224.000 109.276,224.151 109.520 M227.400 147.600 C 227.085 148.109,228.012 148.109,228.800 147.600 C 229.288 147.285,229.236 147.211,228.524 147.206 C 228.042 147.203,227.536 147.380,227.400 147.600 M226.008 301.790 C 225.730 302.126,225.618 302.400,225.760 302.400 C 225.902 302.400,225.699 302.888,225.309 303.485 C 224.919 304.081,224.826 304.430,225.103 304.259 C 225.691 303.897,226.939 301.606,226.686 301.353 C 226.592 301.258,226.286 301.455,226.008 301.790 M224.537 305.311 C 224.351 305.626,223.930 305.985,223.600 306.110 C 223.186 306.266,223.266 306.347,223.857 306.368 C 224.329 306.386,224.828 306.104,224.967 305.743 C 225.294 304.891,224.974 304.570,224.537 305.311 M178.800 342.376 C 178.800 343.047,179.509 343.213,179.746 342.598 C 179.885 342.235,179.744 342.000,179.387 342.000 C 179.064 342.000,178.800 342.169,178.800 342.376 " stroke="none" fill="#5129be" fill-rule="evenodd"></path><path id="path2" d="M162.885 50.184 C 161.533 50.930,160.000 52.464,160.000 53.070 C 160.000 53.361,159.820 53.600,159.600 53.600 C 159.380 53.600,159.200 53.920,159.200 54.312 C 159.200 54.703,158.840 55.283,158.400 55.600 C 157.847 55.999,157.600 56.635,157.600 57.665 C 157.600 58.483,157.420 59.264,157.200 59.400 C 156.980 59.536,156.800 60.267,156.800 61.024 C 156.800 61.781,156.640 62.400,156.444 62.400 C 156.248 62.400,155.985 62.985,155.860 63.700 C 155.445 66.079,154.855 68.979,154.417 70.800 C 154.178 71.790,153.873 73.279,153.738 74.110 C 153.603 74.940,153.336 75.716,153.146 75.833 C 152.956 75.951,152.800 76.587,152.800 77.247 C 152.800 77.907,152.649 78.354,152.464 78.240 C 152.280 78.126,152.102 78.610,152.069 79.316 C 151.947 81.965,151.368 84.792,150.841 85.319 C 150.633 85.527,150.552 85.931,150.662 86.217 C 150.772 86.503,150.661 87.112,150.417 87.569 C 150.074 88.210,150.089 88.401,150.486 88.406 C 150.879 88.411,150.871 88.494,150.451 88.760 C 150.149 88.951,149.981 89.342,150.076 89.629 C 150.172 89.915,149.910 90.490,149.494 90.906 C 149.022 91.378,148.843 91.913,149.016 92.331 C 149.482 93.452,149.654 95.680,149.255 95.434 C 149.051 95.308,148.769 95.504,148.628 95.870 C 148.488 96.236,148.574 96.660,148.820 96.813 C 149.096 96.983,148.948 97.172,148.434 97.307 C 147.464 97.561,147.261 99.200,148.200 99.200 C 148.930 99.200,148.979 99.802,148.300 100.435 C 147.999 100.717,147.856 101.597,147.940 102.651 C 148.028 103.742,147.915 104.400,147.640 104.400 C 147.322 104.400,147.200 121.280,147.200 165.400 C 147.200 208.066,147.327 226.400,147.624 226.400 C 147.857 226.400,147.948 226.560,147.828 226.755 C 147.707 226.951,148.154 227.191,148.821 227.288 C 149.619 227.406,149.975 227.311,149.860 227.013 C 149.754 226.736,150.098 226.589,150.743 226.633 C 151.324 226.673,152.970 226.443,154.400 226.122 C 157.844 225.348,160.292 224.843,162.000 224.553 C 162.770 224.423,163.460 224.154,163.534 223.956 C 163.608 223.757,163.818 223.688,164.002 223.801 C 164.293 223.981,170.756 222.659,172.400 222.083 C 172.730 221.968,173.534 221.797,174.186 221.705 C 174.839 221.612,175.682 221.370,176.060 221.168 C 176.438 220.966,177.389 220.800,178.174 220.800 C 178.958 220.800,179.600 220.620,179.600 220.400 C 179.600 220.180,180.322 220.000,181.203 220.000 C 182.707 220.000,182.776 219.950,182.307 219.200 C 182.032 218.760,181.536 218.414,181.204 218.432 C 180.793 218.453,180.760 218.528,181.100 218.665 C 181.375 218.776,181.600 219.068,181.600 219.313 C 181.600 219.614,181.468 219.628,181.196 219.356 C 180.927 219.087,180.794 190.850,180.798 134.676 L 180.804 50.400 179.902 50.323 C 179.406 50.280,180.800 50.135,183.000 50.000 C 185.526 49.845,182.727 49.741,175.400 49.717 C 166.746 49.688,163.568 49.807,162.885 50.184 M182.400 325.976 C 182.400 326.403,182.580 326.864,182.800 327.000 C 183.027 327.140,183.200 326.804,183.200 326.224 C 183.200 325.661,183.020 325.200,182.800 325.200 C 182.580 325.200,182.400 325.549,182.400 325.976 M182.100 328.223 C 181.825 328.522,181.600 328.954,181.600 329.183 C 181.600 329.812,182.393 329.683,182.650 329.013 C 182.998 328.106,182.657 327.616,182.100 328.223 M180.394 337.612 C 179.905 337.921,179.938 337.989,180.580 337.994 C 181.171 337.999,181.248 338.112,180.897 338.463 C 180.546 338.814,180.287 338.804,179.828 338.423 C 179.304 337.988,179.229 338.116,179.275 339.360 C 179.305 340.152,179.491 340.800,179.688 340.800 C 179.886 340.800,179.934 340.983,179.796 341.207 C 179.658 341.430,179.390 341.517,179.200 341.400 C 179.010 341.283,178.742 341.370,178.604 341.593 C 178.465 341.818,178.716 342.000,179.164 342.000 C 179.726 342.000,179.903 342.187,179.741 342.610 C 179.560 343.081,179.380 343.115,178.953 342.761 C 178.507 342.391,178.400 342.500,178.400 343.327 C 178.400 343.891,178.234 344.456,178.031 344.581 C 177.827 344.707,177.719 345.437,177.791 346.204 C 177.862 346.970,177.758 347.498,177.560 347.375 C 177.362 347.253,177.200 347.973,177.200 348.976 C 177.200 349.979,177.020 350.800,176.800 350.800 C 176.580 350.800,176.400 351.329,176.400 351.976 C 176.400 352.623,176.201 353.276,175.957 353.426 C 175.649 353.617,175.679 353.804,176.057 354.044 C 176.457 354.297,176.468 354.389,176.100 354.394 C 175.784 354.398,175.600 354.990,175.600 356.000 C 175.600 356.880,175.420 357.600,175.200 357.600 C 174.980 357.600,174.800 358.140,174.800 358.800 C 174.800 359.460,174.620 360.000,174.400 360.000 C 174.180 360.000,174.000 360.619,174.000 361.376 C 174.000 362.133,173.820 362.864,173.600 363.000 C 173.380 363.136,173.200 363.867,173.200 364.624 C 173.200 365.381,173.020 366.000,172.800 366.000 C 172.580 366.000,172.400 366.709,172.400 367.576 C 172.400 368.443,172.220 369.264,172.000 369.400 C 171.780 369.536,171.600 370.256,171.600 371.000 C 171.600 371.744,171.420 372.464,171.200 372.600 C 170.980 372.736,170.800 373.456,170.800 374.200 C 170.800 374.944,170.980 375.664,171.200 375.800 C 171.420 375.936,171.600 376.429,171.600 376.896 C 171.600 378.243,173.266 381.567,174.069 381.822 C 174.471 381.950,174.800 382.252,174.800 382.494 C 174.800 382.735,174.909 382.824,175.043 382.691 C 175.176 382.557,175.660 382.797,176.118 383.224 C 177.000 384.045,178.984 384.273,179.400 383.600 C 179.536 383.380,180.132 383.186,180.724 383.168 C 181.316 383.151,181.575 383.046,181.300 382.935 C 180.601 382.653,180.565 338.945,181.264 338.712 C 181.573 338.609,181.604 338.337,181.358 337.897 C 181.097 337.430,180.814 337.346,180.394 337.612 M181.862 383.383 C 181.692 383.826,181.876 383.998,182.513 383.994 C 183.001 383.991,183.220 383.853,183.000 383.689 C 182.780 383.525,182.487 383.250,182.349 383.078 C 182.212 382.906,181.992 383.043,181.862 383.383 " stroke="none" fill="#3038c4" fill-rule="evenodd"></path><path id="path3" d="M160.982 50.915 C 159.989 52.068,159.959 52.520,160.935 51.630 C 161.521 51.097,162.000 50.602,162.000 50.530 C 162.000 50.228,161.369 50.467,160.982 50.915 M151.467 81.067 C 151.320 81.213,151.200 81.873,151.200 82.533 C 151.200 84.030,151.594 83.711,151.805 82.043 C 151.968 80.756,151.919 80.615,151.467 81.067 M150.538 84.617 C 150.166 85.587,150.685 85.762,151.182 84.834 C 151.491 84.256,151.497 84.000,151.202 84.000 C 150.967 84.000,150.668 84.278,150.538 84.617 M150.100 87.093 C 149.825 87.679,149.600 88.653,149.600 89.256 C 149.600 89.859,149.420 90.464,149.200 90.600 C 148.980 90.736,148.800 91.017,148.800 91.224 C 148.800 91.431,149.129 91.285,149.531 90.900 C 149.933 90.515,150.177 89.957,150.073 89.660 C 149.969 89.362,150.135 88.960,150.442 88.766 C 150.861 88.500,150.872 88.411,150.486 88.406 C 150.091 88.401,150.074 88.209,150.412 87.578 C 150.654 87.126,150.795 86.592,150.726 86.391 C 150.657 86.190,150.375 86.506,150.100 87.093 M148.800 93.110 C 148.800 93.573,148.620 94.064,148.400 94.200 C 148.180 94.336,148.000 95.056,148.000 95.800 C 148.000 96.544,147.820 97.264,147.600 97.400 C 147.380 97.536,147.200 98.256,147.200 99.000 C 147.200 99.744,147.020 100.464,146.800 100.600 C 146.580 100.736,146.400 101.456,146.400 102.200 C 146.400 102.944,146.239 103.652,146.042 103.774 C 145.845 103.895,145.590 104.671,145.475 105.497 C 145.360 106.324,145.058 107.810,144.804 108.800 C 144.551 109.790,144.131 111.801,143.872 113.269 C 143.612 114.736,143.265 116.071,143.100 116.235 C 142.935 116.399,142.800 117.324,142.800 118.290 C 142.800 119.360,142.643 119.950,142.400 119.800 C 142.156 119.649,142.000 120.263,142.000 121.376 C 142.000 122.379,141.820 123.200,141.600 123.200 C 141.380 123.200,141.200 123.920,141.200 124.800 C 141.200 125.680,141.020 126.400,140.800 126.400 C 140.580 126.400,140.400 127.030,140.400 127.800 C 140.400 128.570,140.220 129.200,140.000 129.200 C 139.780 129.200,139.600 129.920,139.600 130.800 C 139.600 131.680,139.420 132.400,139.200 132.400 C 138.980 132.400,138.800 133.120,138.800 134.000 C 138.800 134.880,138.620 135.600,138.400 135.600 C 138.180 135.600,138.000 136.309,138.000 137.176 C 138.000 138.043,137.820 138.864,137.600 139.000 C 137.380 139.136,137.200 139.856,137.200 140.600 C 137.200 141.344,137.020 142.064,136.800 142.200 C 136.580 142.336,136.400 143.056,136.400 143.800 C 136.400 144.544,136.220 145.264,136.000 145.400 C 135.780 145.536,135.600 146.357,135.600 147.224 C 135.600 148.091,135.420 148.800,135.200 148.800 C 134.980 148.800,134.800 149.520,134.800 150.400 C 134.800 151.280,134.620 152.000,134.400 152.000 C 134.180 152.000,134.000 152.720,134.000 153.600 C 134.000 154.480,133.820 155.200,133.600 155.200 C 133.380 155.200,133.200 155.920,133.200 156.800 C 133.200 157.680,133.020 158.400,132.800 158.400 C 132.580 158.400,132.400 159.120,132.400 160.000 C 132.400 160.880,132.239 161.600,132.042 161.600 C 131.845 161.600,131.575 162.320,131.442 163.200 C 131.309 164.080,131.091 165.521,130.958 166.403 C 130.825 167.284,130.555 168.105,130.358 168.226 C 130.161 168.348,130.000 169.056,130.000 169.800 C 130.000 170.544,129.820 171.264,129.600 171.400 C 129.380 171.536,129.200 172.357,129.200 173.224 C 129.200 174.091,129.020 174.800,128.800 174.800 C 128.580 174.800,128.400 175.419,128.400 176.176 C 128.400 176.933,128.235 177.655,128.034 177.779 C 127.833 177.904,127.541 179.354,127.387 181.003 C 127.232 182.651,126.947 184.000,126.753 184.000 C 126.559 184.000,126.400 184.720,126.400 185.600 C 126.400 186.480,126.220 187.200,126.000 187.200 C 125.780 187.200,125.600 187.920,125.600 188.800 C 125.600 189.680,125.420 190.400,125.200 190.400 C 124.980 190.400,124.800 191.120,124.800 192.000 C 124.800 192.880,124.620 193.600,124.400 193.600 C 124.180 193.600,124.000 194.309,124.000 195.176 C 124.000 196.043,123.820 196.864,123.600 197.000 C 123.380 197.136,123.200 197.957,123.200 198.824 C 123.200 199.691,123.020 200.400,122.800 200.400 C 122.580 200.400,122.400 201.120,122.400 202.000 C 122.400 202.880,122.220 203.600,122.000 203.600 C 121.780 203.600,121.600 204.320,121.600 205.200 C 121.600 206.080,121.420 206.800,121.200 206.800 C 120.980 206.800,120.800 207.520,120.800 208.400 C 120.800 209.280,120.620 210.000,120.400 210.000 C 120.180 210.000,120.000 210.619,120.000 211.376 C 120.000 212.133,119.820 212.864,119.600 213.000 C 119.380 213.136,119.200 213.856,119.200 214.600 C 119.200 215.344,119.020 216.064,118.800 216.200 C 118.580 216.336,118.400 217.056,118.400 217.800 C 118.400 218.544,118.220 219.264,118.000 219.400 C 117.780 219.536,117.600 221.077,117.600 222.824 C 117.600 224.675,117.767 226.000,118.000 226.000 C 118.220 226.000,118.400 226.360,118.400 226.800 C 118.400 227.240,118.580 227.600,118.800 227.600 C 119.020 227.600,119.200 227.876,119.200 228.213 C 119.200 229.009,121.791 231.600,122.587 231.600 C 122.924 231.600,123.200 231.780,123.200 232.000 C 123.200 232.242,124.925 232.400,127.576 232.400 C 130.063 232.400,132.060 232.227,132.200 232.000 C 132.336 231.780,133.056 231.600,133.800 231.600 C 134.544 231.600,135.264 231.420,135.400 231.200 C 135.536 230.980,136.256 230.800,137.000 230.800 C 137.744 230.800,138.464 230.620,138.600 230.400 C 138.736 230.180,139.467 230.000,140.224 230.000 C 140.981 230.000,141.600 229.820,141.600 229.600 C 141.600 229.380,142.305 229.200,143.167 229.200 C 144.028 229.200,144.799 229.002,144.880 228.760 C 144.961 228.518,145.696 228.320,146.513 228.320 C 147.331 228.320,148.000 228.171,148.000 227.988 C 148.000 227.805,148.405 227.578,148.900 227.482 C 149.656 227.337,149.620 227.300,148.676 227.254 C 148.040 227.224,147.660 227.027,147.800 226.800 C 147.936 226.580,147.857 226.400,147.624 226.400 C 147.327 226.400,147.200 208.066,147.200 165.400 C 147.200 121.280,147.322 104.400,147.640 104.400 C 147.915 104.400,148.028 103.742,147.940 102.651 C 147.856 101.597,147.999 100.717,148.300 100.435 C 148.979 99.802,148.930 99.200,148.200 99.200 C 147.261 99.200,147.464 97.561,148.434 97.307 C 148.948 97.172,149.096 96.983,148.820 96.813 C 148.574 96.660,148.488 96.236,148.628 95.870 C 148.769 95.504,149.051 95.308,149.255 95.434 C 149.467 95.565,149.558 95.044,149.467 94.219 C 149.289 92.609,148.800 91.795,148.800 93.110 M169.200 222.800 C 168.376 223.064,168.341 223.126,169.000 223.154 C 169.440 223.173,170.070 223.013,170.400 222.800 C 171.101 222.347,170.614 222.347,169.200 222.800 M163.600 223.933 C 163.600 224.190,163.105 224.425,162.500 224.454 C 161.490 224.504,161.478 224.524,162.346 224.688 C 163.319 224.873,164.360 224.227,163.873 223.740 C 163.723 223.590,163.600 223.677,163.600 223.933 M153.200 226.400 L 152.200 226.720 153.300 226.760 C 153.905 226.782,154.400 226.620,154.400 226.400 C 154.400 226.180,154.355 226.018,154.300 226.040 C 154.245 226.062,153.750 226.224,153.200 226.400 M149.894 227.100 C 149.999 227.375,150.317 227.600,150.600 227.600 C 150.883 227.600,151.201 227.375,151.306 227.100 C 151.425 226.791,151.154 226.600,150.600 226.600 C 150.046 226.600,149.775 226.791,149.894 227.100 " stroke="none" fill="#1f3fc4" fill-rule="evenodd"></path><path id="path4" d="M222.407 81.719 C 222.418 99.399,222.321 114.142,222.190 114.481 C 222.060 114.819,222.196 115.190,222.491 115.303 C 222.795 115.419,223.059 115.224,223.098 114.855 C 223.289 113.050,223.733 111.600,224.094 111.600 C 224.335 111.600,224.309 111.372,224.030 111.036 C 223.704 110.643,223.691 110.391,223.987 110.208 C 224.221 110.063,224.291 109.747,224.141 109.504 C 223.966 109.221,224.106 109.155,224.534 109.319 C 225.044 109.515,225.200 109.344,225.200 108.587 C 225.200 108.044,225.399 107.600,225.643 107.600 C 225.886 107.600,225.989 107.347,225.870 107.039 C 225.752 106.730,225.907 106.145,226.215 105.739 C 226.523 105.332,226.780 104.606,226.787 104.124 C 226.794 103.642,226.980 103.136,227.200 103.000 C 227.420 102.864,227.600 102.408,227.600 101.986 C 227.600 101.564,227.959 100.630,228.399 99.910 C 228.838 99.189,229.198 98.105,229.199 97.500 C 229.199 96.895,229.341 96.400,229.513 96.400 C 229.685 96.400,230.074 95.545,230.378 94.500 C 230.682 93.455,231.043 92.510,231.179 92.400 C 231.316 92.290,231.860 90.850,232.388 89.200 C 233.313 86.310,234.464 83.358,235.233 81.905 C 235.435 81.523,235.600 80.943,235.600 80.615 C 235.600 80.288,236.143 78.834,236.807 77.384 C 237.471 75.934,237.920 74.594,237.804 74.406 C 237.688 74.218,237.819 73.825,238.096 73.532 C 238.373 73.240,238.661 72.550,238.735 72.000 C 238.809 71.450,239.034 70.829,239.235 70.620 C 239.436 70.411,239.600 69.916,239.600 69.520 C 239.600 69.124,239.750 68.800,239.933 68.800 C 240.296 68.800,241.148 65.877,241.476 63.502 C 241.590 62.678,241.845 62.104,242.042 62.226 C 242.239 62.348,242.400 61.987,242.400 61.424 C 242.400 60.861,242.535 60.399,242.700 60.397 C 243.152 60.392,244.000 58.369,244.000 57.297 C 244.000 56.769,243.824 56.462,243.600 56.600 C 243.367 56.744,243.200 56.337,243.200 55.624 C 243.200 54.951,243.050 54.400,242.868 54.400 C 242.685 54.400,242.281 53.905,241.969 53.300 C 241.658 52.695,240.797 51.628,240.056 50.930 L 238.708 49.659 230.548 49.616 L 222.387 49.573 222.407 81.719 M254.984 140.825 C 254.857 141.031,254.144 141.200,253.400 141.200 C 252.656 141.200,251.936 141.380,251.800 141.600 C 251.664 141.820,250.923 142.000,250.153 142.000 C 249.321 142.000,248.853 142.162,249.000 142.400 C 249.151 142.645,248.530 142.800,247.400 142.800 C 246.270 142.800,245.649 142.955,245.800 143.200 C 245.947 143.438,245.467 143.600,244.611 143.600 C 243.821 143.600,242.091 143.965,240.767 144.411 C 239.443 144.857,238.221 145.136,238.051 145.032 C 237.881 144.927,237.230 145.107,236.604 145.431 C 235.978 145.756,235.271 145.952,235.033 145.866 C 234.795 145.781,233.970 145.938,233.200 146.217 C 230.181 147.308,227.424 148.057,226.045 148.161 C 225.250 148.221,224.632 148.439,224.670 148.646 C 224.709 148.852,224.009 149.050,223.116 149.085 C 222.222 149.120,221.304 149.336,221.075 149.565 C 220.787 149.853,220.927 149.930,221.529 149.814 L 222.400 149.646 222.433 228.123 C 222.452 271.285,222.512 307.005,222.566 307.500 C 222.719 308.878,223.135 309.024,223.579 307.855 C 223.800 307.275,224.210 306.782,224.490 306.760 C 224.771 306.738,224.550 306.576,224.000 306.400 C 223.415 306.213,223.273 306.063,223.657 306.040 C 224.263 306.003,224.556 305.631,224.789 304.600 C 224.838 304.380,225.080 303.840,225.325 303.400 C 225.571 302.960,225.778 302.479,225.786 302.332 C 225.794 302.185,226.205 301.598,226.700 301.029 C 227.195 300.460,227.600 299.849,227.600 299.672 C 227.600 299.495,227.960 298.605,228.400 297.694 C 228.840 296.784,229.200 295.848,229.200 295.614 C 229.200 295.180,230.020 293.561,230.423 293.200 C 230.546 293.090,231.228 291.740,231.940 290.200 C 232.651 288.660,233.507 286.950,233.841 286.400 C 234.176 285.850,234.549 285.085,234.671 284.700 C 234.793 284.315,235.052 284.000,235.247 284.000 C 235.441 284.000,235.600 283.574,235.600 283.054 C 235.600 282.534,235.960 281.650,236.400 281.091 C 236.840 280.531,237.200 279.842,237.200 279.560 C 237.200 279.060,239.271 274.488,240.829 271.546 C 241.253 270.746,241.600 269.801,241.600 269.446 C 241.600 269.090,241.780 268.800,242.000 268.800 C 242.220 268.800,242.400 268.339,242.400 267.776 C 242.400 267.196,242.573 266.860,242.800 267.000 C 243.027 267.140,243.200 266.804,243.200 266.224 C 243.200 265.661,243.380 265.200,243.600 265.200 C 243.820 265.200,244.000 264.840,244.000 264.400 C 244.000 263.960,244.180 263.600,244.400 263.600 C 244.620 263.600,244.800 263.355,244.800 263.055 C 244.800 262.756,245.520 261.111,246.400 259.400 C 247.280 257.689,248.000 256.044,248.000 255.745 C 248.000 255.445,248.180 255.200,248.400 255.200 C 248.620 255.200,248.800 254.786,248.800 254.280 C 248.800 253.774,248.974 253.186,249.187 252.973 C 249.944 252.216,251.558 248.655,251.319 248.269 C 251.184 248.050,251.281 248.003,251.538 248.162 C 251.812 248.331,252.000 248.193,252.000 247.824 C 252.000 247.481,252.225 247.197,252.500 247.194 C 252.833 247.190,252.800 247.058,252.400 246.800 C 252.070 246.587,251.982 246.409,252.204 246.406 C 252.986 246.394,253.740 244.735,253.137 244.353 C 252.730 244.095,252.781 244.011,253.347 244.006 C 253.895 244.002,254.038 243.788,253.884 243.200 C 253.737 242.639,253.873 242.398,254.337 242.394 C 254.911 242.389,254.920 242.336,254.400 242.000 C 253.894 241.673,253.917 241.611,254.543 241.606 C 255.038 241.602,255.209 241.400,255.055 241.000 C 254.929 240.670,255.044 240.397,255.313 240.394 C 255.656 240.390,255.640 240.286,255.259 240.045 C 254.833 239.775,254.905 239.572,255.599 239.086 C 257.109 238.028,257.689 236.507,256.989 235.440 C 256.664 234.943,256.489 234.444,256.602 234.331 C 256.746 234.187,256.896 163.956,256.802 140.985 C 256.800 140.458,255.293 140.326,254.984 140.825 M256.563 237.400 C 256.203 237.950,255.717 238.400,255.484 238.400 C 255.251 238.400,255.483 237.950,256.000 237.400 C 256.517 236.850,257.002 236.400,257.079 236.400 C 257.156 236.400,256.924 236.850,256.563 237.400 " stroke="none" fill="#6f1cbc" fill-rule="evenodd"></path></g></svg>